<svg width="96" height="96" viewBox="0 0 96 96" fill="none" xmlns="http://www.w3.org/2000/svg"><defs><linearGradient id="a" x1="0" y1="0" x2="96" y2="96" gradientUnits="userSpaceOnUse"><stop stop-color="#FF6EC4"/><stop offset="1" stop-color="#7873F5"/></linearGradient></defs><rect width="96" height="96" rx="20" fill="url(#a)"/><path d="m19 43-2.474 2.475L14.05 43l2.475-2.474zm59.5 28a3.5 3.5 0 1 1-7 0zm-44.475-8.025-17.5-17.5 4.95-4.95 17.5 17.5zm-17.5-22.45 17.5-17.5 4.95 4.95-17.5 17.5zM19 39.5h35v7H19zM78.5 64v7h-7v-7zM54 39.5A24.5 24.5 0 0 1 78.5 64h-7A17.5 17.5 0 0 0 54 46.5z" stroke="#000" stroke-width="7" stroke-linecap="round" stroke-linejoin="round"/></svg>